<svg xmlns="http://www.w3.org/2000/svg" viewBox="0 0 24 24" shape-rendering="crispEdges">
  <rect width="24" height="24" rx="3" fill="#0e150c" />
  <g fill="#dde5d5">
    <rect x="11" y="3" width="2" height="2" />
    <rect x="9" y="5" width="2" height="2" />
    <rect x="11" y="5" width="2" height="2" />
    <rect x="13" y="5" width="2" height="2" />
    <rect x="15" y="5" width="2" height="2" />
    <rect x="7" y="7" width="2" height="2" />
    <rect x="11" y="7" width="2" height="2" />
    <rect x="7" y="9" width="2" height="2" />
    <rect x="11" y="9" width="2" height="2" />
    <rect x="9" y="11" width="2" height="2" />
    <rect x="11" y="11" width="2" height="2" />
    <rect x="13" y="11" width="2" height="2" />
    <rect x="11" y="13" width="2" height="2" />
    <rect x="15" y="13" width="2" height="2" />
    <rect x="11" y="15" width="2" height="2" />
    <rect x="15" y="15" width="2" height="2" />
    <rect x="7" y="17" width="2" height="2" />
    <rect x="9" y="17" width="2" height="2" />
    <rect x="11" y="17" width="2" height="2" />
    <rect x="13" y="17" width="2" height="2" />
    <rect x="11" y="19" width="2" height="2" />
  </g>
</svg>
